<svg width="94" height="53" viewBox="0 0 94 53" fill="none" xmlns="http://www.w3.org/2000/svg">
<g id="best">
<path id="casa" d="M31.1568 12.6218L11.3513 32.7033C11.336 37.4955 11.3145 47.5263 11.3513 49.3113C11.3881 51.0964 9.89444 51.834 9.14302 51.9797C7.90853 51.995 5.0117 52.0165 3.30029 51.9797C1.58887 51.9429 1.05367 50.1855 1 49.3113V26.7915L17.6771 10.1605M31.1568 12.6218C28.8795 10.7356 22.9953 7.60257 17.6771 10.1605M31.1568 12.6218C31.5938 12.7828 32.9878 13.6569 35.0673 15.8652C37.1467 18.0735 41.7304 21.3092 43.7623 22.651C48.823 24.5281 52.7565 21.8689 54.0906 20.3047L34.6072 2.2245C33.4187 1.38873 30.071 0.145041 26.1881 1.85645L17.6771 10.1605" stroke="url(#paint0_linear)" stroke-width="1.5"/>
<g id="best_2">
<path d="M83.5574 28.1257H78.0137V45.8379C78.0137 49.7944 80.774 51.1669 82.1542 51.3586H87.1918V45.8379H84.2244C83.5988 45.8379 83.519 45.3319 83.5574 45.0788V37.2349H87.1918L91.9074 31.7832H83.5574V28.1257Z" stroke="url(#paint1_linear)" stroke-width="1.5"/>
<path d="M26.0962 28.8388H21.0126V42.4795C21.1353 44.4271 22.2731 48.8053 25.8432 50.7375C30.3057 53.1529 34.8373 51.3816 36.5625 50.1395C38.2877 48.8973 40.749 46.275 40.749 41.3984C40.749 36.5218 36.9996 34.0605 35.5504 33.1864C34.391 32.4871 28.3812 32.0516 27.2694 32.0132V37.3039H30.3287C31.0418 37.2655 32.7716 37.3867 33.9862 38.178C35.5044 39.1671 35.4354 41.3294 35.5504 42.4795C35.6654 43.6297 34.8603 45.0788 33.3421 46.275C31.8239 47.4711 29.7997 46.8501 28.0284 46.022C26.6115 45.3595 26.1499 43.7677 26.0962 43.0546V28.8388Z" stroke="url(#paint2_linear)" stroke-width="1.5"/>
<path d="M55.5859 39.0981H48.9611V43.9004L61.1986 44.1127C61.5206 43.1159 61.6586 40.1332 59.6344 36.1767C57.6101 32.2202 52.3501 31.7525 49.9732 32.0132C47.2205 32.4043 41.7382 34.8702 41.8302 41.6054C41.9222 48.3407 47.2512 50.8986 49.9042 51.3356H59.0133V46.505H50.9393C49.9502 46.2597 47.8937 45.0413 47.3048 43.9004C46.716 42.7594 46.6838 39.9899 47.3048 38.9087C47.8799 38.0346 49.3751 36.6782 51.5834 36.6598C53.7917 36.6414 55.1718 38.2777 55.5859 39.0981Z" stroke="url(#paint3_linear)" stroke-width="1.5"/>
<path d="M67.4094 31.7832H75.5524V36.6598H68.5135C67.7958 38.1872 70.1007 39.2438 71.3428 39.5812C73.1524 40.3403 76.7347 42.7418 76.5875 46.275C76.4403 49.8082 73.0297 51.3356 71.3428 51.6577H62.4637V46.505L70.2387 46.275C70.7448 45.8073 70.8874 44.4854 67.4094 42.9396C63.0618 41.0073 62.9008 39.9492 62.8318 36.1767C62.7766 33.1588 65.8605 31.9902 67.4094 31.7832Z" stroke="url(#paint4_linear)" stroke-width="1.5"/>
</g>
</g>
<defs>
<linearGradient id="paint0_linear" x1="54.094" y1="0.999999" x2="1.00003" y2="51.9958" gradientUnits="userSpaceOnUse">
<stop stop-color="#7BDCE1"/>
<stop offset="1" stop-color="#4477BD"/>
</linearGradient>
<linearGradient id="paint1_linear" x1="91.9074" y1="28.1401" x2="21.0242" y2="51.9503" gradientUnits="userSpaceOnUse">
<stop stop-color="#3A67B6"/>
<stop offset="1" stop-color="#6DC3D8"/>
</linearGradient>
<linearGradient id="paint2_linear" x1="91.9074" y1="28.1401" x2="21.0242" y2="51.9503" gradientUnits="userSpaceOnUse">
<stop stop-color="#3A67B6"/>
<stop offset="1" stop-color="#6DC3D8"/>
</linearGradient>
<linearGradient id="paint3_linear" x1="91.9074" y1="28.1401" x2="21.0242" y2="51.9503" gradientUnits="userSpaceOnUse">
<stop stop-color="#3A67B6"/>
<stop offset="1" stop-color="#6DC3D8"/>
</linearGradient>
<linearGradient id="paint4_linear" x1="91.9074" y1="28.1401" x2="21.0242" y2="51.9503" gradientUnits="userSpaceOnUse">
<stop stop-color="#3A67B6"/>
<stop offset="1" stop-color="#6DC3D8"/>
</linearGradient>
</defs>
</svg>
