<svg width="722" height="458" viewBox="0 0 722 458" fill="none" xmlns="http://www.w3.org/2000/svg">
<g filter="url(#filter0_i)">
<rect width="722" height="458" rx="25" transform="matrix(1 0 0 -1 0 458)" fill="url(#paint0_linear)"/>
</g>
<rect width="722" height="107.344" transform="matrix(1 0 0 -1 0 425)" fill="#D6D6D6"/>
<rect width="157.438" height="103.766" rx="51.8828" transform="matrix(1 0 0 -1 23.9998 232)" fill="url(#paint1_linear)"/>
<text transform="matrix(1 0 0 -1 23.9998 104)" fill="#FEFBFF" xml:space="preserve" style="white-space: pre" font-family="Sora" font-size="36" letter-spacing="0.03em"><tspan x="0" y="37.24">5032 9334 3764 9846</tspan></text>
<text transform="matrix(1 0 0 -1 64.0005 300)" fill="#F7F2FA" xml:space="preserve" style="white-space: pre" font-family="Sora" font-size="36" font-weight="600" letter-spacing="0em"><tspan x="0" y="37.24">gold</tspan></text>
<text transform="matrix(1 0 0 -1 66.0002 45.0005)" fill="#FEFBFF" xml:space="preserve" style="white-space: pre" font-family="Sora" font-size="18" letter-spacing="0em"><tspan x="0" y="18.62">02/17</tspan></text>
<text transform="matrix(1 0 0 -1 168 45.0005)" fill="#FEFBFF" xml:space="preserve" style="white-space: pre" font-family="Sora" font-size="18" letter-spacing="0em"><tspan x="0" y="18.62">02/20</tspan></text>
<text transform="matrix(1 0 0 -1 283.001 45.0005)" fill="#FEFBFF" xml:space="preserve" style="white-space: pre" font-family="Sora" font-size="18" letter-spacing="0em"><tspan x="0" y="18.62">123</tspan></text>
<text transform="matrix(1 0 0 -1 623.999 36.9998)" fill="#FBF9FC" xml:space="preserve" style="white-space: pre" font-family="Sora" font-size="13" font-weight="600" letter-spacing="0em"><tspan x="0" y="13.42">cirrus.</tspan></text>
<ellipse rx="31" ry="31" transform="matrix(1 0 0 -1 626 69.0005)" fill="#0167B2"/>
<ellipse rx="31" ry="31" transform="matrix(1 0 0 -1 664 69.0005)" fill="#02A1E2"/>
<path fill-rule="evenodd" clip-rule="evenodd" d="M644.872 44.5993C652.228 50.261 656.968 59.1543 656.968 69.1548C656.968 79.1552 652.228 88.0485 644.872 93.7102C637.515 88.0485 632.775 79.1552 632.775 69.1547C632.775 59.1543 637.515 50.261 644.872 44.5993Z" fill="#207CBD"/>
<text transform="matrix(1 0 0 -1 25.9995 42)" fill="#FEFBFF" xml:space="preserve" style="white-space: pre" font-family="Source Sans Pro" font-size="6" letter-spacing="0.1em"><tspan x="0" y="6.133">MEMBER&#10;</tspan><tspan x="0" y="14.133">SINCE</tspan></text>
<text transform="matrix(1 0 0 -1 138 42)" fill="#FEFBFF" xml:space="preserve" style="white-space: pre" font-family="Source Sans Pro" font-size="6" letter-spacing="0.1em"><tspan x="0" y="6.133">VALID&#10;</tspan><tspan x="0" y="14.133">THRU</tspan></text>
<text transform="matrix(1 0 0 -1 240 42)" fill="#FEFBFF" xml:space="preserve" style="white-space: pre" font-family="Source Sans Pro" font-size="6" letter-spacing="0.1em"><tspan x="0" y="6.133">SECURITY&#10;</tspan><tspan x="0" y="14.133">CODE</tspan></text>
<path d="M321.999 270C321.999 269.469 321.788 268.961 321.413 268.586C321.038 268.21 320.529 268 319.999 268H307.999L303.999 264V280C303.999 280.53 304.21 281.039 304.585 281.414C304.96 281.789 305.469 282 305.999 282H319.999C320.529 282 321.038 281.789 321.413 281.414C321.788 281.039 321.999 280.53 321.999 280V270Z" stroke="#FEFBFF" stroke-linecap="round" stroke-linejoin="round"/>
<path d="M313 222C318.523 222 323 226.477 323 232C323 237.523 318.523 242 313 242C307.477 242 303 237.523 303 232C303 226.477 307.477 222 313 222Z" stroke="#FEFBFF" stroke-linecap="round" stroke-linejoin="round"/>
<path d="M310.09 235C310.325 235.668 310.789 236.232 311.4 236.591C312.011 236.95 312.729 237.081 313.427 236.961C314.126 236.841 314.759 236.478 315.215 235.936C315.671 235.394 315.921 234.708 315.92 234C315.92 232 312.92 231 312.92 231" stroke="#FEFBFF" stroke-linecap="round" stroke-linejoin="round"/>
<path d="M313 227H313.006" stroke="#FEFBFF" stroke-linecap="round" stroke-linejoin="round"/>
<text transform="matrix(1 0 0 -1 335 288)" fill="#FEFBFF" xml:space="preserve" style="white-space: pre" font-family="Source Sans Pro" font-size="9" letter-spacing="0em"><tspan x="0" y="10.1995">Est&#xe1; com d&#xfa;vidas?&#10;</tspan><tspan x="0" y="24.1995">Nosso app pode te ajudar.</tspan></text>
<text transform="matrix(1 0 0 -1 335 246)" fill="#FEFBFF" xml:space="preserve" style="white-space: pre" font-family="Source Sans Pro" font-size="9" letter-spacing="0em"><tspan x="0" y="10.1995">Fale com a gente:&#10;</tspan><tspan x="0" y="24.1995">0800 591 2117</tspan></text>
<ellipse rx="31.5" ry="31.5" transform="matrix(1 0 0 -1 125.499 179.5)" fill="#D9D9D9"/>
<path fill-rule="evenodd" clip-rule="evenodd" d="M91.0008 232H75.8835C47.2295 232 24.0007 208.771 24.0007 180.117C24.0007 151.463 47.2295 128.234 75.8835 128.234H91.1908C123.447 168.059 126.04 190.773 91.0008 232Z" fill="url(#paint2_linear)"/>
<defs>
<filter id="filter0_i" x="0" y="0" width="725" height="461" filterUnits="userSpaceOnUse" color-interpolation-filters="sRGB">
<feFlood flood-opacity="0" result="BackgroundImageFix"/>
<feBlend mode="normal" in="SourceGraphic" in2="BackgroundImageFix" result="shape"/>
<feColorMatrix in="SourceAlpha" type="matrix" values="0 0 0 0 0 0 0 0 0 0 0 0 0 0 0 0 0 0 127 0" result="hardAlpha"/>
<feOffset dx="3" dy="3"/>
<feGaussianBlur stdDeviation="3"/>
<feComposite in2="hardAlpha" operator="arithmetic" k2="-1" k3="1"/>
<feColorMatrix type="matrix" values="0 0 0 0 1 0 0 0 0 1 0 0 0 0 1 0 0 0 0.25 0"/>
<feBlend mode="normal" in2="shape" result="effect1_innerShadow"/>
</filter>
<linearGradient id="paint0_linear" x1="610.09" y1="61.83" x2="354.096" y2="526.995" gradientUnits="userSpaceOnUse">
<stop stop-color="#1E208E"/>
<stop offset="0.999149" stop-color="#39A1DB"/>
</linearGradient>
<linearGradient id="paint1_linear" x1="83" y1="104" x2="126.5" y2="6" gradientUnits="userSpaceOnUse">
<stop stop-color="#F6F3F7"/>
<stop offset="1" stop-color="#D6D6D6"/>
</linearGradient>
<linearGradient id="paint2_linear" x1="95.5008" y1="227" x2="47.0008" y2="140.5" gradientUnits="userSpaceOnUse">
<stop stop-color="#F5F5F5"/>
<stop offset="1" stop-color="#D6D6D6"/>
</linearGradient>
</defs>
</svg>
