<svg width="31" height="31" viewBox="0 0 31 31" fill="none" xmlns="http://www.w3.org/2000/svg">
<path id="facebook" d="M22.0353 17.3532H22.1483L22.1732 17.243L23.3237 12.1307L23.3624 11.9584H23.1859H16.1326V8.78209C16.1326 8.11902 16.3692 7.47235 16.9841 6.98755C17.6038 6.49899 18.6246 6.16139 20.2187 6.16139H23.4896H23.6308V6.02015V1.66755V1.54178L23.5057 1.52724L23.4896 1.66755C23.5057 1.52724 23.5057 1.52724 23.5057 1.52724V1.52721L23.5051 1.52718L23.5034 1.52698L23.4969 1.52622L23.4712 1.52331C23.4486 1.52077 23.4153 1.51701 23.3718 1.51229C23.2845 1.5028 23.1571 1.48927 22.9955 1.47303C22.672 1.44057 22.2113 1.39729 21.6616 1.35404C20.563 1.26755 19.1074 1.18091 17.6834 1.18091C14.7042 1.18091 12.2234 1.79608 10.483 2.98385C8.73642 4.17582 7.7443 5.93936 7.7443 8.20334V11.9584H1.29945H1.1582V12.0996V17.212V17.3532H1.29945H7.7443V29.5707V29.712H7.88555H15.9914H16.1326V29.5707V17.3532H22.0353Z" stroke="#2744A9" stroke-width="2"/>
</svg>
