<svg width="32" height="31" viewBox="0 0 32 31" fill="none" xmlns="http://www.w3.org/2000/svg">
<path id="instagram" d="M15.9447 7.88173C11.6731 7.88173 8.21602 11.1725 8.21602 15.2655C8.21602 19.3586 11.6731 22.6494 15.9447 22.6494C20.2163 22.6494 23.6734 19.3586 23.6734 15.2655C23.6734 11.1725 20.2163 7.88173 15.9447 7.88173ZM15.9447 19.8329C13.3023 19.8329 11.1531 17.7783 11.1531 15.2655C11.1531 12.7527 13.2958 10.6982 15.9447 10.6982C18.5936 10.6982 20.7363 12.7527 20.7363 15.2655C20.7363 17.7783 18.5872 19.8329 15.9447 19.8329ZM23.8427 9.55727C24.8912 9.55727 25.7537 8.75037 25.7537 7.7267C25.7537 6.70967 24.8915 5.89616 23.8427 5.89616C22.7935 5.89616 21.9316 6.70967 21.9316 7.7267C21.9316 8.7434 22.7864 9.55727 23.8427 9.55727ZM30.7785 9.43373C30.6653 7.15156 30.1175 5.10591 28.3444 3.42001C26.5797 1.7354 24.4401 1.21374 22.0537 1.09947C19.6049 0.966843 12.2783 0.966843 9.82944 1.09947C7.44899 1.20744 5.30983 1.72922 3.53839 3.41368C1.76531 5.09975 1.22413 7.14551 1.10424 9.42701C0.965258 11.7651 0.965258 18.7592 1.10421 21.0975C1.21752 23.3797 1.76551 25.4251 3.53839 27.111C5.30981 28.7955 7.44232 29.3172 9.82924 29.4316C12.2779 29.5641 19.6046 29.5641 22.0534 29.4316C24.4404 29.3237 26.5797 28.802 28.3446 27.1107C30.1107 25.4249 30.6588 23.3794 30.7785 21.0975C30.9175 18.7593 30.9175 11.7722 30.7785 9.43373ZM27.3508 23.5379C26.8511 24.7359 25.8842 25.6607 24.6178 26.1455C23.6692 26.5045 22.0497 26.6469 20.3789 26.6966C19.1884 26.7319 17.9871 26.7203 17.0036 26.7107C16.6111 26.7071 16.2533 26.7037 15.9447 26.7037C15.6422 26.7037 15.292 26.7068 14.9082 26.7105C13.92 26.7195 12.7082 26.7305 11.5081 26.6944C9.83658 26.6438 8.21718 26.5014 7.27161 26.1455C6.01246 25.6672 5.045 24.7427 4.5387 23.5379C4.16373 22.6353 4.01472 21.0927 3.96263 19.4976C3.92554 18.3617 3.93769 17.2156 3.94766 16.277C3.95164 15.9021 3.95526 15.5604 3.95526 15.2655C3.95526 14.9764 3.95192 14.642 3.94822 14.2755C3.93876 13.3324 3.92712 12.1763 3.96509 11.0312C4.01803 9.4354 4.16701 7.89255 4.53879 6.99294C5.03831 5.79495 6.00548 4.87032 7.27173 4.38554C8.22046 4.02645 9.8398 3.88422 11.5105 3.8345C12.701 3.79907 13.9024 3.81071 14.8858 3.82023C15.2784 3.82402 15.6362 3.82749 15.9447 3.82749C16.2473 3.82749 16.5974 3.82427 16.9813 3.82077C17.9694 3.8117 19.1812 3.8006 20.3813 3.83687C22.0528 3.88738 23.6723 4.02958 24.6178 4.38557C25.8771 4.86393 26.8446 5.78842 27.3508 6.99337C27.7257 7.89602 27.8749 9.43865 27.9268 11.0335C27.9638 12.1694 27.9517 13.3155 27.9418 14.2541C27.9379 14.629 27.9342 14.9707 27.9342 15.2655C27.9342 15.5603 27.9379 15.9021 27.9418 16.2771C27.9517 17.2163 27.9638 18.3634 27.9268 19.4999C27.8749 21.096 27.7257 22.6387 27.3508 23.5379Z" stroke="#2744A9" stroke-width="2"/>
</svg>
