<svg width="32" height="32" viewBox="0 0 32 32" fill="none" xmlns="http://www.w3.org/2000/svg">
<path id="linkedin" d="M7.7972 31H7.94571V30.8515V11.0203V10.8718H7.7972H1.63915H1.49063V11.0203V30.8515V31H1.63915H7.7972ZM24.5515 30.8515V31H24.7H30.8449H30.8515H31V30.8515V19.958C31 17.2894 30.7149 14.8931 29.6253 13.1624C28.5257 11.4159 26.6262 10.3746 23.4736 10.3746C20.6316 10.3746 18.6525 11.827 17.7093 13.3217V11.0203V10.8718H17.5607H11.6546H11.5061V11.0203V30.8515V31H11.6546H17.8061H17.9546V30.8515V21.032C17.9546 19.7419 18.0784 18.504 18.5816 17.5914C18.8313 17.1386 19.1739 16.7671 19.6427 16.5075C20.1123 16.2475 20.7172 16.0951 21.4984 16.0951C22.2635 16.0951 22.8266 16.2737 23.2449 16.5654C23.6634 16.8573 23.9491 17.2714 24.1443 17.7641C24.5381 18.7582 24.5515 20.041 24.5515 21.1977V30.8515ZM1 4.71495C1 6.76434 2.66188 8.4637 4.71486 8.4637C6.76716 8.4637 8.42972 6.76434 8.42972 4.71495C8.42972 3.72967 8.03833 2.78476 7.34167 2.08808C6.64499 1.3914 5.70011 1 4.71486 1C3.72961 1 2.78473 1.3914 2.08805 2.08808C1.3914 2.78476 1 3.72967 1 4.71495Z" stroke="#2744A9" stroke-width="2"/>
</svg>
