<svg width="34" height="30" viewBox="0 0 34 30" fill="none" xmlns="http://www.w3.org/2000/svg">
<path id="twitter" d="M15.9303 10.6275C11.2446 10.3051 7.06879 7.84056 4.27704 4.08633L4.14415 3.90765L4.03915 4.10401C3.52644 5.06282 3.23381 6.16113 3.23381 7.35788C3.23381 9.41231 4.11531 11.2511 5.49935 12.4368C4.7467 12.3376 4.03766 12.0761 3.41266 11.6955L3.19797 11.5648V11.8162V11.8944C3.19797 14.8112 4.96093 17.2721 7.40605 18.0808C7.0956 18.1365 6.77664 18.1668 6.45808 18.1668C6.09153 18.1668 5.74105 18.1287 5.38746 18.0708L5.16591 18.0346L5.22915 18.25C5.94404 20.6848 7.95927 22.4949 10.4106 22.7113C8.49271 24.2526 6.13754 25.1475 3.59017 25.1475C3.11014 25.1475 2.66825 25.128 2.20972 25.0704L2.11096 25.326C4.69664 27.1407 7.77187 28.187 11.0825 28.187C21.8342 28.187 27.6963 18.4737 27.6963 10.0759V10.0737C27.6963 9.82545 27.6963 9.57274 27.6825 9.3191C28.8006 8.41737 29.7768 7.3074 30.5602 6.06446L30.8178 5.65585L30.3805 5.86135C29.5229 6.2646 28.6048 6.57305 27.6576 6.74246C28.6534 5.94531 29.4065 4.82497 29.7876 3.52604L29.8952 3.15952L29.5749 3.36791C28.5008 4.0672 27.291 4.58133 26.0294 4.85596C24.9506 3.63285 23.4302 2.87573 21.7474 2.87573C18.4494 2.87573 15.8166 5.78635 15.8166 9.33285C15.8166 9.76983 15.8587 10.2058 15.9303 10.6275Z" stroke="#2744A9" stroke-width="2"/>
</svg>
