<svg width="29" height="27" viewBox="0 0 29 27" fill="none" xmlns="http://www.w3.org/2000/svg">
<g id="wpp">
<path id="baloon" d="M23.499 4.46016L23.499 4.46019C26.0118 6.86436 27.4986 10.0277 27.4986 13.3679C27.4986 20.2792 21.4583 25.9799 14.118 25.9799H14.1117C11.8848 25.9799 9.70249 25.4483 7.76831 24.4398L7.51564 24.308L7.23924 24.3773L1.07979 25.9209L2.70712 20.2498L2.79729 19.9356L2.62847 19.6556C1.47508 17.743 0.869802 15.5776 0.869802 13.3619C0.869802 6.44152 6.78101 0.75 14.118 0.75C17.6693 0.75 21.0006 2.06948 23.499 4.46016Z" stroke="#2744A9" stroke-width="1.5"/>
<path id="tel" d="M20.8864 17.3259L20.8864 17.3258C20.7106 17.2295 20.1707 16.9423 19.6306 16.6622C19.068 16.3704 18.582 16.1271 18.4605 16.0804C18.2725 16.3477 18.0048 16.6046 17.7244 16.8026C17.4198 17.0177 16.9781 17.25 16.5 17.25C16.2879 17.25 16.104 17.1847 15.9793 17.1292C15.8455 17.0698 15.7186 16.9936 15.6062 16.9179C15.3815 16.7665 15.1558 16.5762 14.9643 16.4023C14.7697 16.2255 14.5941 16.0508 14.4681 15.9214C14.4048 15.8563 14.3531 15.8018 14.3169 15.7631L14.2743 15.7174L14.2625 15.7045L14.262 15.7039L11.5737 12.8431C11.5286 12.8098 11.4772 12.7671 11.4233 12.7136C11.2934 12.5848 11.1521 12.3959 11.0555 12.1348C10.8578 11.6 10.8967 10.9074 11.2991 10.0361C11.2984 10.0335 11.2975 10.0304 11.2963 10.0266C11.2918 10.0122 11.2841 9.99176 11.2706 9.96265C11.193 9.79557 10.7753 8.69981 10.4393 7.8185C10.3108 7.48129 10.1942 7.17546 10.1133 6.96508C10.0766 6.87038 10.0451 6.80686 10.0217 6.76585C9.99617 6.76558 9.96522 6.76482 9.93374 6.76283L9.93079 6.76264L9.93079 6.76263C9.748 6.75034 9.52884 6.75 9.27576 6.75C9.22083 6.75 9.04042 6.77459 8.86096 6.98174C8.83845 7.0083 8.81392 7.03661 8.78772 7.06684C8.42635 7.4838 7.75 8.26419 7.75 9.81157C7.75 10.6326 8.03177 11.479 8.36306 12.1823C8.67271 12.8397 9.00074 13.3213 9.10886 13.48C9.11387 13.4873 9.11841 13.494 9.12246 13.5C9.14005 13.5255 9.16711 13.5668 9.20336 13.6221C9.69806 14.3773 11.9048 17.7462 15.1288 19.2481L20.8864 17.3259ZM20.8864 17.3259L20.8965 17.3312M20.8864 17.3259L20.8965 17.3312M20.8965 17.3312C20.9596 17.3646 21.0241 17.3978 21.0797 17.4264C21.1066 17.4402 21.1313 17.4529 21.1528 17.4641C21.1914 17.4841 21.2232 17.5009 21.2499 17.5156C21.2505 17.5752 21.2482 17.6504 21.2411 17.7399C21.2191 18.0174 21.1541 18.3903 21.02 18.7982L21.0199 18.7984M20.8965 17.3312L21.0199 18.7984M21.0199 18.7984C20.9447 19.0276 20.6676 19.354 20.2141 19.6675C19.7718 19.9732 19.3318 20.1499 19.1251 20.1833M21.0199 18.7984L19.1251 20.1833M19.1251 20.1833C18.6041 20.2661 18.1756 20.283 17.6168 20.1692C17.0338 20.0506 16.2812 19.7839 15.1288 19.2482L19.1251 20.1833ZM21.352 17.5778C21.3519 17.5778 21.3507 17.5769 21.3486 17.5751C21.351 17.5769 21.3521 17.5778 21.352 17.5778Z" stroke="#2744A9" stroke-width="1.5"/>
</g>
</svg>
